<?xml version="1.0" encoding="utf-8"?>
<!-- Generator: Adobe Illustrator 24.3.0, SVG Export Plug-In . SVG Version: 6.00 Build 0)  -->
<svg version="1.1" id="Layer_1" xmlns="http://www.w3.org/2000/svg" xmlns:xlink="http://www.w3.org/1999/xlink" x="0px" y="0px"
	 viewBox="0 0 560 288" style="enable-background:new 0 0 560 288;" xml:space="preserve">
<style type="text/css">
	.st0{fill:#E90000;stroke:#000000;stroke-miterlimit:10;}
	.st1{fill:#FFFFFF;stroke:#101418;stroke-miterlimit:10;}
	.st2{fill:#030847;}
	.st3{fill:#030861;}
	.st4{fill:#FFFFFF;}
	.st5{fill:#101418;stroke:#000000;stroke-miterlimit:10;}
	.st6{stroke:#000000;stroke-miterlimit:10;}
	.st7{fill:#FFFFFF;stroke:#000000;stroke-miterlimit:10;}
</style>
<path class="st0" d="M413.85,74.89v95.75c0,23.67-19.19,42.86-42.85,42.86H129.3c-23.67,0-42.86-19.19-42.86-42.86V74.89
	c0-23.67,19.19-42.86,42.86-42.86H371C394.66,32.03,413.85,51.22,413.85,74.89z"/>
<polygon class="st1" points="217.29,176.55 217.63,75.11 324.26,126.19 "/>
<path class="st2" d="M469.6,185.08h-45.28c-4.14,0-7.49-3.35-7.49-7.49v-7.66c0-4.14,3.35-7.49,7.49-7.49h45.28
	c4.14,0,7.49,3.35,7.49,7.49v7.66C477.09,181.72,473.73,185.08,469.6,185.08z"/>
<path class="st3" d="M489.34,189.16h-47.66c-4.14,0-7.49-3.35-7.49-7.49v-5.79c0-4.14,3.35-7.49,7.49-7.49h47.66
	c4.14,0,7.49,3.35,7.49,7.49v5.79C496.83,185.81,493.48,189.16,489.34,189.16z"/>
<path class="st3" d="M488.83,213.5h-64c-4.42,0-8-3.58-8-8v-23.66c0-3.95,3.2-7.15,7.15-7.15h64.85c4.42,0,8,3.58,8,8v22.81
	C496.83,209.92,493.25,213.5,488.83,213.5z"/>
<path class="st4" d="M435.49,120.77h7.19c1.44,0,2.6,1.17,2.59,2.61l-0.13,26.7l8.62,0.04l-14.54,11.2l-14.19-11.31l8.39-0.09
	l-0.53-26.51C432.87,121.96,434.04,120.77,435.49,120.77z"/>
<path class="st5" d="M471.21,197.83h-24.17c-0.78,0-1.41-0.63-1.41-1.41v-17.44c0-0.78,0.63-1.41,1.41-1.41h24.17
	c0.78,0,1.41,0.63,1.41,1.41v17.44C472.62,197.2,471.99,197.83,471.21,197.83z"/>
<rect x="457.45" y="197.31" class="st6" width="3.54" height="8.7"/>
<path class="st6" d="M468.47,207.62h-18.37c-0.8,0-1.44-0.64-1.44-1.44l0,0c0-0.8,0.64-1.44,1.44-1.44h18.37
	c0.8,0,1.44,0.64,1.44,1.44l0,0C469.91,206.98,469.26,207.62,468.47,207.62z"/>
<path class="st7" d="M470.29,197.56h-22.34c-1.28,0-2.32-1.04-2.32-2.32v-15.34c0-1.28,1.04-2.32,2.32-2.32h22.03
	c1.45,0,2.63,1.18,2.63,2.63v15.03C472.62,196.52,471.58,197.56,470.29,197.56z"/>
</svg>
